<svg width="794" height="291" viewBox="0 0 794 291" fill="none" xmlns="http://www.w3.org/2000/svg">
<path d="M38.5378 286.381V89.3016C38.5378 72.8783 42.1347 57.9947 49.3284 44.6508C56.5222 31.0503 66.9274 20.2725 80.5441 12.3175C94.1608 4.10582 110.604 0 129.873 0C144.26 0 156.977 2.30952 168.025 6.92857C179.329 11.5476 188.707 17.7064 196.158 25.4048L149.527 71.9801C147.728 69.9272 145.416 68.5159 142.59 67.746C139.764 66.7196 136.809 66.2063 133.726 66.2063C127.817 66.2063 123.064 68.0026 119.467 71.5952C115.87 75.1878 114.072 79.9352 114.072 85.8373V286.381H38.5378ZM0 158.587V97H166.098V158.587H0Z" fill="white"/>
<path d="M287.962 291C265.867 291 246.47 286.894 229.77 278.683C213.07 270.214 199.967 258.538 190.461 243.655C181.212 228.515 176.588 211.193 176.588 191.69C176.588 172.444 181.084 155.38 190.076 140.496C199.325 125.612 211.914 113.937 227.843 105.468C243.772 96.7434 261.756 92.381 281.796 92.381C301.579 92.381 319.049 96.4868 334.207 104.698C349.366 112.653 361.184 123.816 369.662 138.187C378.397 152.557 382.765 168.98 382.765 187.456C382.765 191.306 382.508 195.411 381.994 199.774C381.737 203.88 380.967 208.755 379.682 214.401L208.574 215.556V169.365L351.549 168.21L316.48 188.611C316.48 178.347 315.195 170.007 312.626 163.591C310.314 156.919 306.717 151.915 301.836 148.579C296.954 145.243 290.788 143.575 283.337 143.575C275.63 143.575 268.95 145.5 263.298 149.349C257.646 153.198 253.278 158.716 250.195 165.901C247.369 173.086 245.956 181.811 245.956 192.075C245.956 202.597 247.497 211.45 250.58 218.635C253.92 225.563 258.673 230.824 264.839 234.417C271.005 238.009 278.713 239.806 287.962 239.806C296.954 239.806 304.79 238.394 311.47 235.571C318.407 232.492 324.701 227.745 330.354 221.329L368.121 258.667C358.615 269.444 347.182 277.528 333.822 282.917C320.462 288.306 305.176 291 287.962 291Z" fill="white"/>
<path d="M495.506 291C477.008 291 460.565 287.407 446.178 280.222C432.047 273.037 420.871 263.029 412.65 250.198C404.429 237.368 400.318 222.741 400.318 206.317V97H475.852V207.087C475.852 210.937 476.623 214.401 478.164 217.48C479.963 220.56 482.275 222.997 485.101 224.794C488.184 226.333 491.653 227.103 495.506 227.103C500.902 227.103 505.398 225.307 508.995 221.714C512.848 217.865 514.775 212.989 514.775 207.087V97H590.309V206.317C590.309 222.997 586.199 237.753 577.977 250.583C570.013 263.157 558.837 273.037 544.449 280.222C530.319 287.407 514.005 291 495.506 291Z" fill="white"/>
<path d="M717.31 291C696.756 291 678.258 286.766 661.815 278.298C645.372 269.829 632.398 258.153 622.892 243.27C613.386 228.13 608.633 211.065 608.633 192.075C608.633 172.829 613.386 155.765 622.892 140.881C632.655 125.741 645.758 113.937 662.201 105.468C678.9 96.7434 697.655 92.381 718.466 92.381C733.367 92.381 746.727 94.6905 758.545 99.3095C770.62 103.929 781.796 110.985 792.073 120.48L744.672 167.825C741.332 164.746 737.606 162.437 733.496 160.897C729.385 159.357 724.375 158.587 718.466 158.587C712.3 158.587 706.648 159.999 701.509 162.821C696.628 165.388 692.645 169.108 689.562 173.984C686.479 178.86 684.938 184.634 684.938 191.306C684.938 197.978 686.479 203.88 689.562 209.012C692.645 213.888 696.756 217.737 701.895 220.56C707.033 223.382 712.557 224.794 718.466 224.794C725.146 224.794 730.669 223.767 735.037 221.714C739.405 219.661 743.258 216.839 746.598 213.246L794 260.591C782.952 270.856 771.391 278.554 759.316 283.687C747.241 288.562 733.239 291 717.31 291Z" fill="white"/>
</svg>
