<svg width="1080" height="1080" viewBox="0 0 1080 1080" fill="none" xmlns="http://www.w3.org/2000/svg">
<rect width="1080" height="1080" fill="#67C3B6"/>
<path d="M176.742 686.582V477.753C176.742 461.153 180.354 446.294 187.578 433.176C194.803 419.789 205.104 409.08 218.483 401.048C232.129 393.016 248.451 389 267.449 389C281.631 389 294.073 391.41 304.776 396.229C315.479 400.78 324.71 406.938 332.47 414.702L288.721 458.476C286.581 456.066 283.905 454.326 280.694 453.255C277.751 451.917 274.272 451.247 270.259 451.247C263.034 451.247 257.281 453.389 253 457.673C248.719 461.957 246.578 467.713 246.578 474.942V686.582H176.742ZM135 548.434V490.202H301.966V548.434H135Z" fill="#FFF5E9"/>
<path d="M425.432 691C403.491 691 384.092 686.716 367.234 678.149C350.377 669.314 337.132 657.132 327.5 641.604C317.867 626.075 313.051 608.271 313.051 588.192C313.051 568.379 317.733 550.843 327.098 535.582C336.463 520.054 349.173 507.872 365.228 499.037C381.55 489.934 399.878 485.383 420.214 485.383C440.015 485.383 457.541 489.667 472.792 498.234C488.312 506.534 500.353 518.18 508.915 533.173C517.745 547.898 522.16 564.765 522.16 583.774C522.16 587.79 521.892 591.94 521.357 596.223C521.09 600.239 520.287 604.925 518.949 610.279L345.962 611.082V566.104L491.255 564.899L459.949 584.577C459.681 573.6 458.076 564.631 455.132 557.67C452.189 550.441 447.908 544.953 442.289 541.205C436.67 537.457 429.579 535.582 421.017 535.582C412.187 535.582 404.561 537.724 398.139 542.008C391.717 546.292 386.767 552.316 383.289 560.08C379.81 567.844 378.071 577.215 378.071 588.192C378.071 599.436 379.944 609.074 383.69 617.106C387.436 624.871 392.788 630.761 399.745 634.777C406.702 638.793 415.264 640.801 425.432 640.801C435.064 640.801 443.493 639.194 450.718 635.981C458.21 632.769 464.899 627.816 470.786 621.122L507.309 657.668C497.677 668.645 485.904 676.944 471.99 682.567C458.343 688.189 442.824 691 425.432 691Z" fill="#FFF5E9"/>
<path d="M638.439 691C619.976 691 603.52 687.386 589.071 680.157C574.89 672.66 563.652 662.353 555.357 649.234C547.33 635.848 543.316 620.721 543.316 603.854V490.202H613.153V603.854C613.153 609.208 614.223 613.894 616.364 617.91C618.504 621.926 621.448 625.004 625.194 627.146C628.94 629.288 633.355 630.359 638.439 630.359C645.931 630.359 651.951 627.949 656.5 623.13C661.316 618.311 663.724 611.886 663.724 603.854V490.202H733.561V603.854C733.561 620.988 729.547 636.115 721.52 649.234C713.493 662.353 702.255 672.66 687.806 680.157C673.625 687.386 657.169 691 638.439 691Z" fill="#FFF5E9"/>
<path d="M866.333 691C845.462 691 826.598 686.582 809.741 677.747C793.152 668.912 780.041 656.731 770.408 641.202C760.775 625.674 755.959 608.137 755.959 588.593C755.959 568.781 760.775 551.111 770.408 535.582C780.308 520.054 793.553 507.872 810.143 499.037C827 489.934 845.998 485.383 867.136 485.383C882.388 485.383 896.301 487.926 908.877 493.013C921.453 498.1 932.959 505.731 943.395 515.904L899.245 560.08C895.231 556.064 890.549 553.119 885.197 551.245C880.113 549.103 874.093 548.032 867.136 548.032C859.644 548.032 852.821 549.772 846.666 553.253C840.78 556.465 835.964 561.017 832.218 566.907C828.739 572.797 827 579.892 827 588.192C827 596.223 828.739 603.318 832.218 609.476C835.964 615.366 840.78 620.051 846.666 623.532C852.821 627.012 859.644 628.753 867.136 628.753C874.628 628.753 881.05 627.548 886.401 625.138C891.753 622.729 896.435 619.248 900.449 614.697L945 658.872C934.029 669.582 922.122 677.613 909.279 682.968C896.703 688.323 882.388 691 866.333 691Z" fill="#FFF5E9"/>
</svg>
